<?xml version="1.0" encoding="utf-8"?>
<!-- Generator: Adobe Illustrator 26.1.0, SVG Export Plug-In . SVG Version: 6.00 Build 0)  -->
<svg version="1.1" id="Warstwa_1" xmlns="http://www.w3.org/2000/svg" xmlns:xlink="http://www.w3.org/1999/xlink" x="0px" y="0px"
	 viewBox="0 0 262 51" style="enable-background:new 0 0 262 51;" xml:space="preserve">
<style type="text/css">
	.st0{enable-background:new    ;}
	.st1{fill:#414141;}
	.st2{fill:#B7B7B7;}
</style>
<g id="Group_419" transform="translate(-330 -74)">
	<g class="st0">
		<path class="st1" d="M334.3,99.4c-1-0.5-1.9-1.3-2.4-2.3c-0.6-1-0.9-2.1-0.9-3.4v-5.6c0-1.3,0.3-2.4,0.9-3.4
			c0.6-1,1.4-1.7,2.4-2.3c1-0.5,2.3-0.8,3.7-0.8c1.4,0,2.6,0.3,3.7,0.8c1,0.5,1.9,1.2,2.4,2.2c0.6,0.9,0.9,2,0.9,3.2
			c0,0.1,0,0.2-0.1,0.2c-0.1,0.1-0.1,0.1-0.2,0.1l-3.7,0.2c-0.2,0-0.3-0.1-0.3-0.3c0-0.8-0.2-1.5-0.7-2c-0.5-0.5-1.1-0.7-1.9-0.7
			c-0.8,0-1.4,0.2-1.9,0.7c-0.5,0.5-0.7,1.1-0.7,1.9v5.9c0,0.8,0.2,1.4,0.7,1.9c0.5,0.5,1.1,0.7,1.9,0.7c0.8,0,1.4-0.2,1.9-0.7
			s0.7-1.1,0.7-1.9c0-0.2,0.1-0.3,0.3-0.3l3.7,0.2c0.1,0,0.2,0,0.2,0.1c0.1,0.1,0.1,0.1,0.1,0.2c0,1.2-0.3,2.3-0.9,3.2
			c-0.6,0.9-1.4,1.7-2.4,2.2c-1,0.5-2.3,0.8-3.7,0.8C336.6,100.2,335.4,99.9,334.3,99.4z"/>
		<path class="st1" d="M350.2,99.4c-1.1-0.6-1.9-1.4-2.5-2.4c-0.6-1-0.9-2.2-0.9-3.6v-5.2c0-1.3,0.3-2.5,0.9-3.5
			c0.6-1,1.4-1.8,2.5-2.4c1.1-0.6,2.3-0.8,3.7-0.8c1.4,0,2.6,0.3,3.7,0.8c1.1,0.6,1.9,1.4,2.5,2.4c0.6,1,0.9,2.2,0.9,3.5v5.2
			c0,1.4-0.3,2.5-0.9,3.6c-0.6,1-1.4,1.8-2.5,2.4c-1.1,0.6-2.3,0.8-3.7,0.8C352.5,100.3,351.3,100,350.2,99.4z M355.9,95.8
			c0.5-0.5,0.8-1.3,0.8-2.2v-5.4c0-0.9-0.3-1.6-0.8-2.1c-0.5-0.5-1.2-0.8-2-0.8c-0.8,0-1.5,0.3-2,0.8c-0.5,0.5-0.8,1.3-0.8,2.1v5.4
			c0,0.9,0.3,1.6,0.8,2.2s1.2,0.8,2,0.8C354.7,96.6,355.4,96.3,355.9,95.8z"/>
		<path class="st1" d="M367,99.7l-4.8-17.6l0-0.1c0-0.2,0.1-0.2,0.3-0.2h4c0.2,0,0.3,0.1,0.3,0.3l2.3,9.5c0,0.1,0,0.1,0.1,0.1
			s0.1,0,0.1-0.1l2-9.4c0-0.2,0.1-0.3,0.3-0.3h3.6c0.2,0,0.3,0.1,0.3,0.3l2.3,9.5c0,0.1,0,0.1,0.1,0.1c0,0,0.1,0,0.1-0.1l2.1-9.4
			c0-0.2,0.1-0.3,0.3-0.3h3.8c0.2,0,0.3,0.1,0.3,0.3L380,99.7c-0.1,0.2-0.2,0.3-0.4,0.3h-3.7c-0.2,0-0.3-0.1-0.3-0.3l-2.3-10
			c0-0.1,0-0.1-0.1-0.1c0,0-0.1,0-0.1,0.1l-2,10c0,0.2-0.1,0.3-0.3,0.3h-3.5C367.1,100,367,99.9,367,99.7z"/>
		<path class="st1" d="M388.4,99.4c-1.1-0.6-1.9-1.4-2.5-2.4c-0.6-1-0.9-2.2-0.9-3.6v-5.2c0-1.3,0.3-2.5,0.9-3.5
			c0.6-1,1.4-1.8,2.5-2.4c1.1-0.6,2.3-0.8,3.7-0.8c1.4,0,2.6,0.3,3.7,0.8c1.1,0.6,1.9,1.4,2.5,2.4c0.6,1,0.9,2.2,0.9,3.5v5.2
			c0,1.4-0.3,2.5-0.9,3.6c-0.6,1-1.4,1.8-2.5,2.4c-1.1,0.6-2.3,0.8-3.7,0.8C390.7,100.3,389.4,100,388.4,99.4z M394.1,95.8
			c0.5-0.5,0.8-1.3,0.8-2.2v-5.4c0-0.9-0.3-1.6-0.8-2.1c-0.5-0.5-1.2-0.8-2-0.8c-0.8,0-1.5,0.3-2,0.8c-0.5,0.5-0.8,1.3-0.8,2.1v5.4
			c0,0.9,0.3,1.6,0.8,2.2s1.2,0.8,2,0.8C392.9,96.6,393.6,96.3,394.1,95.8z"/>
		<path class="st1" d="M410.8,99.8l-3.1-6.9c0-0.1-0.1-0.1-0.2-0.1h-1.7c-0.1,0-0.1,0-0.1,0.1v6.8c0,0.1,0,0.2-0.1,0.2
			c-0.1,0.1-0.1,0.1-0.2,0.1h-3.7c-0.1,0-0.2,0-0.2-0.1c-0.1-0.1-0.1-0.1-0.1-0.2V82.1c0-0.1,0-0.2,0.1-0.2c0.1-0.1,0.1-0.1,0.2-0.1
			h7.7c1.1,0,2.1,0.2,3,0.7c0.9,0.5,1.5,1.1,2,2c0.5,0.9,0.7,1.8,0.7,3c0,1.2-0.3,2.2-0.9,3c-0.6,0.8-1.4,1.5-2.4,1.8
			c-0.1,0-0.1,0.1-0.1,0.2l3.4,7.1c0,0.1,0.1,0.1,0.1,0.2c0,0.1-0.1,0.2-0.3,0.2h-3.9C411,100,410.9,99.9,410.8,99.8z M405.8,85.6
			v3.7c0,0.1,0,0.1,0.1,0.1h2.9c0.6,0,1.2-0.2,1.6-0.5c0.4-0.4,0.6-0.8,0.6-1.4c0-0.6-0.2-1.1-0.6-1.5c-0.4-0.4-0.9-0.5-1.6-0.5
			h-2.9C405.8,85.5,405.8,85.5,405.8,85.6z"/>
		<path class="st1" d="M417.5,99.9c-0.1-0.1-0.1-0.1-0.1-0.2V82.1c0-0.1,0-0.2,0.1-0.2c0.1-0.1,0.1-0.1,0.2-0.1h3.7
			c0.1,0,0.2,0,0.2,0.1c0.1,0.1,0.1,0.1,0.1,0.2v6.8c0,0.1,0,0.1,0.1,0.1c0,0,0.1,0,0.1,0l5.3-6.9c0.1-0.1,0.2-0.2,0.4-0.2h4.2
			c0.2,0,0.3,0.1,0.3,0.2c0,0.1,0,0.1-0.1,0.2l-5.6,7.5c0,0.1,0,0.1,0,0.2l5.9,9.8c0,0.1,0.1,0.2,0.1,0.2c0,0.1-0.1,0.2-0.3,0.2
			h-4.1c-0.2,0-0.3-0.1-0.4-0.2l-4.1-6.9c-0.1-0.1-0.1-0.1-0.2,0l-1.4,1.8c0,0.1-0.1,0.1-0.1,0.2v4.8c0,0.1,0,0.2-0.1,0.2
			c-0.1,0.1-0.1,0.1-0.2,0.1h-3.7C417.6,100,417.6,100,417.5,99.9z"/>
		<path class="st1" d="M433.9,99.9c-0.1-0.1-0.1-0.1-0.1-0.2V82.1c0-0.1,0-0.2,0.1-0.2c0.1-0.1,0.1-0.1,0.2-0.1h3.7
			c0.1,0,0.2,0,0.2,0.1c0.1,0.1,0.1,0.1,0.1,0.2v17.6c0,0.1,0,0.2-0.1,0.2c-0.1,0.1-0.1,0.1-0.2,0.1h-3.7
			C434,100,434,100,433.9,99.9z"/>
		<path class="st1" d="M451.1,81.9c0.1-0.1,0.1-0.1,0.2-0.1h3.7c0.1,0,0.2,0,0.2,0.1c0.1,0.1,0.1,0.1,0.1,0.2v17.6
			c0,0.1,0,0.2-0.1,0.2s-0.1,0.1-0.2,0.1h-3.5c-0.2,0-0.3-0.1-0.4-0.2l-6-9.9c0-0.1-0.1-0.1-0.1-0.1c0,0-0.1,0-0.1,0.1l0,9.8
			c0,0.1,0,0.2-0.1,0.2c-0.1,0.1-0.1,0.1-0.2,0.1H441c-0.1,0-0.2,0-0.2-0.1c-0.1-0.1-0.1-0.1-0.1-0.2V82.1c0-0.1,0-0.2,0.1-0.2
			c0.1-0.1,0.1-0.1,0.2-0.1h3.6c0.2,0,0.3,0.1,0.4,0.2l6,9.9c0,0.1,0.1,0.1,0.1,0.1c0,0,0.1,0,0.1-0.1l0-9.8
			C451,82,451.1,82,451.1,81.9z"/>
		<path class="st1" d="M460.9,99.4c-1-0.6-1.9-1.3-2.4-2.3c-0.6-1-0.9-2.2-0.9-3.5v-5.3c0-1.3,0.3-2.5,0.9-3.5
			c0.6-1,1.4-1.8,2.4-2.3c1-0.6,2.3-0.8,3.7-0.8c1.4,0,2.6,0.3,3.6,0.8c1.1,0.5,1.9,1.3,2.5,2.2c0.6,0.9,0.9,1.9,0.9,3v0.1
			c0,0.1,0,0.2-0.1,0.2c-0.1,0.1-0.1,0.1-0.2,0.1h-3.7c-0.1,0-0.2,0-0.2-0.1s-0.1-0.1-0.1-0.2c0-0.7-0.2-1.3-0.7-1.7
			c-0.5-0.5-1.1-0.7-1.9-0.7c-0.8,0-1.4,0.3-1.9,0.8c-0.5,0.5-0.7,1.2-0.7,2v5.6c0,0.8,0.3,1.5,0.8,2c0.5,0.5,1.2,0.8,2,0.8
			c0.8,0,1.4-0.2,1.8-0.6c0.5-0.4,0.7-1,0.7-1.7v-0.7c0-0.1,0-0.1-0.1-0.1h-2.6c-0.1,0-0.2,0-0.2-0.1c-0.1-0.1-0.1-0.1-0.1-0.2v-2.9
			c0-0.1,0-0.2,0.1-0.2c0.1-0.1,0.1-0.1,0.2-0.1h6.7c0.1,0,0.2,0,0.2,0.1c0.1,0.1,0.1,0.1,0.1,0.2v3.5c0,1.3-0.3,2.4-0.9,3.4
			c-0.6,1-1.4,1.8-2.4,2.3s-2.3,0.8-3.7,0.8C463.2,100.2,462,99.9,460.9,99.4z"/>
	</g>
	<g class="st0">
		<path class="st1" d="M489.5,99.8l-3.4-7.5c0-0.1-0.1-0.1-0.2-0.1h-3.1c-0.1,0-0.1,0-0.1,0.1v7.4c0,0.1,0,0.2-0.1,0.2
			c-0.1,0.1-0.1,0.1-0.2,0.1H480c-0.1,0-0.2,0-0.2-0.1s-0.1-0.1-0.1-0.2V82.1c0-0.1,0-0.2,0.1-0.2c0.1-0.1,0.1-0.1,0.2-0.1h7.1
			c1.1,0,2,0.2,2.8,0.7c0.8,0.4,1.4,1.1,1.9,1.9c0.5,0.8,0.7,1.7,0.7,2.8c0,1.2-0.3,2.2-0.9,3.1s-1.5,1.4-2.6,1.8c0,0-0.1,0-0.1,0.1
			c0,0,0,0.1,0,0.1l3.7,7.6c0,0.1,0.1,0.1,0.1,0.2c0,0.1-0.1,0.2-0.3,0.2h-2.5C489.7,100,489.6,99.9,489.5,99.8z M482.7,84.5v5.2
			c0,0.1,0,0.1,0.1,0.1h3.9c0.8,0,1.5-0.2,2-0.7c0.5-0.5,0.8-1.1,0.8-2c0-0.8-0.3-1.5-0.8-2c-0.5-0.5-1.2-0.8-2-0.8h-3.9
			C482.7,84.4,482.7,84.4,482.7,84.5z"/>
		<path class="st1" d="M494.7,99.9c-0.1-0.1-0.1-0.1-0.1-0.2v-2.2c0-0.1,0-0.3,0.1-0.4l8.8-12.5c0,0,0-0.1,0-0.1s-0.1-0.1-0.1-0.1
			H495c-0.1,0-0.2,0-0.2-0.1c-0.1-0.1-0.1-0.1-0.1-0.2v-2c0-0.1,0-0.2,0.1-0.2c0.1-0.1,0.1-0.1,0.2-0.1h11.7c0.1,0,0.2,0,0.2,0.1
			C507,82,507,82,507,82.1v2.2c0,0.1,0,0.3-0.1,0.4l-8.8,12.5c0,0,0,0.1,0,0.1c0,0,0.1,0.1,0.1,0.1h8.5c0.1,0,0.2,0,0.2,0.1
			s0.1,0.1,0.1,0.2v2c0,0.1,0,0.2-0.1,0.2s-0.1,0.1-0.2,0.1H495C494.9,100,494.8,100,494.7,99.9z"/>
		<path class="st1" d="M522.2,84.3c-0.1,0.1-0.1,0.1-0.2,0.1h-8.9c-0.1,0-0.1,0-0.1,0.1v4.9c0,0.1,0,0.1,0.1,0.1h6
			c0.1,0,0.2,0,0.2,0.1c0.1,0.1,0.1,0.1,0.1,0.2v2c0,0.1,0,0.2-0.1,0.2c-0.1,0.1-0.1,0.1-0.2,0.1h-6c-0.1,0-0.1,0-0.1,0.1v5
			c0,0.1,0,0.1,0.1,0.1h8.9c0.1,0,0.2,0,0.2,0.1s0.1,0.1,0.1,0.2v2c0,0.1,0,0.2-0.1,0.2s-0.1,0.1-0.2,0.1h-11.7
			c-0.1,0-0.2,0-0.2-0.1s-0.1-0.1-0.1-0.2V82.1c0-0.1,0-0.2,0.1-0.2c0.1-0.1,0.1-0.1,0.2-0.1H522c0.1,0,0.2,0,0.2,0.1
			c0.1,0.1,0.1,0.1,0.1,0.2v2C522.3,84.2,522.3,84.2,522.2,84.3z"/>
		<path class="st1" d="M527.7,99.6c-1-0.4-1.8-1-2.3-1.8c-0.5-0.8-0.8-1.7-0.8-2.8v-0.7c0-0.1,0-0.2,0.1-0.2s0.1-0.1,0.2-0.1h2.3
			c0.1,0,0.2,0,0.2,0.1s0.1,0.1,0.1,0.2v0.5c0,0.8,0.4,1.5,1.1,2c0.7,0.5,1.7,0.8,2.9,0.8c1.1,0,1.9-0.2,2.4-0.7
			c0.5-0.5,0.8-1,0.8-1.7c0-0.5-0.1-0.9-0.4-1.2s-0.7-0.6-1.3-0.9s-1.4-0.6-2.5-1c-1.2-0.5-2.2-0.9-3-1.3c-0.8-0.4-1.4-0.9-1.9-1.6
			c-0.5-0.7-0.8-1.5-0.8-2.6c0-1.5,0.6-2.7,1.7-3.6c1.1-0.9,2.6-1.3,4.4-1.3c1.3,0,2.4,0.2,3.4,0.7c1,0.5,1.8,1.1,2.3,1.9
			c0.6,0.8,0.8,1.7,0.8,2.8v0.4c0,0.1,0,0.2-0.1,0.2c-0.1,0.1-0.1,0.1-0.2,0.1h-2.3c-0.1,0-0.2,0-0.2-0.1s-0.1-0.1-0.1-0.2v-0.3
			c0-0.8-0.3-1.5-1-2.1c-0.7-0.6-1.6-0.8-2.8-0.8c-1,0-1.7,0.2-2.2,0.6c-0.5,0.4-0.8,1-0.8,1.7c0,0.5,0.1,0.9,0.4,1.3
			s0.7,0.6,1.2,0.9s1.4,0.6,2.6,1c1.2,0.5,2.2,0.9,3,1.3c0.7,0.4,1.4,0.9,1.9,1.6c0.5,0.7,0.8,1.5,0.8,2.6c0,1.6-0.6,2.8-1.7,3.7
			c-1.2,0.9-2.7,1.4-4.7,1.4C529.9,100.2,528.7,100,527.7,99.6z"/>
		<path class="st1" d="M539.9,99.9c-0.1-0.1-0.1-0.1-0.1-0.2v-2.2c0-0.1,0-0.3,0.1-0.4l8.8-12.5c0,0,0-0.1,0-0.1s-0.1-0.1-0.1-0.1
			h-8.5c-0.1,0-0.2,0-0.2-0.1c-0.1-0.1-0.1-0.1-0.1-0.2v-2c0-0.1,0-0.2,0.1-0.2c0.1-0.1,0.1-0.1,0.2-0.1h11.7c0.1,0,0.2,0,0.2,0.1
			c0.1,0.1,0.1,0.1,0.1,0.2v2.2c0,0.1,0,0.3-0.1,0.4l-8.8,12.5c0,0,0,0.1,0,0.1c0,0,0.1,0.1,0.1,0.1h8.5c0.1,0,0.2,0,0.2,0.1
			s0.1,0.1,0.1,0.2v2c0,0.1,0,0.2-0.1,0.2s-0.1,0.1-0.2,0.1h-11.7C540,100,540,100,539.9,99.9z"/>
		<path class="st1" d="M557.9,99.5c-1-0.5-1.8-1.3-2.3-2.2s-0.8-2.1-0.8-3.4v-5.9c0-1.2,0.3-2.4,0.8-3.3s1.3-1.7,2.3-2.2
			c1-0.5,2.1-0.8,3.4-0.8c1.3,0,2.5,0.3,3.5,0.8c1,0.5,1.8,1.3,2.3,2.2s0.8,2.1,0.8,3.3v5.9c0,1.3-0.3,2.4-0.8,3.4s-1.3,1.7-2.3,2.2
			c-1,0.5-2.2,0.8-3.5,0.8C560,100.3,558.9,100,557.9,99.5z M563.9,96.6c0.7-0.7,1-1.6,1-2.7v-6.1c0-1.1-0.3-2-1-2.7
			c-0.7-0.7-1.5-1-2.6-1c-1.1,0-1.9,0.3-2.6,1c-0.7,0.7-1,1.6-1,2.7V94c0,1.1,0.3,2,1,2.7c0.7,0.7,1.5,1,2.6,1
			C562.4,97.7,563.3,97.3,563.9,96.6z M559.9,80c0-0.1,0-0.2,0-0.3l1.4-2.7c0.1-0.1,0.2-0.2,0.4-0.2h2.1c0.1,0,0.2,0,0.2,0.1
			s0,0.2,0,0.3l-1.8,2.7c-0.1,0.1-0.2,0.2-0.4,0.2h-1.7C560,80.1,559.9,80.1,559.9,80z"/>
		<path class="st1" d="M574.5,99.7l-4.7-17.6l0-0.1c0-0.2,0.1-0.2,0.3-0.2h2.5c0.2,0,0.3,0.1,0.4,0.3l3,11.9c0,0.1,0,0.1,0.1,0.1
			c0,0,0.1,0,0.1-0.1l2.8-11.9c0.1-0.2,0.2-0.3,0.3-0.3h2.5c0.2,0,0.3,0.1,0.4,0.3l3,11.9c0,0.1,0,0.1,0.1,0.1c0,0,0.1,0,0.1-0.1
			l2.9-11.9c0.1-0.2,0.2-0.3,0.4-0.3h2.4c0.2,0,0.3,0.1,0.3,0.3l-4.5,17.6c-0.1,0.2-0.2,0.3-0.4,0.3H584c-0.2,0-0.3-0.1-0.4-0.3
			l-3-12.4c0-0.1,0-0.1-0.1-0.1c0,0-0.1,0-0.1,0.1l-2.9,12.4c-0.1,0.2-0.2,0.3-0.3,0.3h-2.3C574.7,100,574.6,99.9,574.5,99.7z"/>
	</g>
	<g class="st0">
		<path class="st2" d="M336.5,112.5c0.4,0.2,0.8,0.6,1,1c0.2,0.4,0.4,0.9,0.4,1.5c0,0.6-0.1,1-0.4,1.5c-0.2,0.4-0.6,0.7-1,1
			c-0.4,0.2-1,0.4-1.5,0.4h-2.5c0,0-0.1,0-0.1,0.1v4c0,0.1,0,0.1-0.1,0.1h-1.1c-0.1,0-0.1,0-0.1-0.1v-9.5c0-0.1,0-0.1,0.1-0.1h3.8
			C335.6,112.2,336.1,112.3,336.5,112.5z M336,116.3c0.3-0.3,0.5-0.7,0.5-1.2c0-0.5-0.2-0.9-0.5-1.2c-0.3-0.3-0.7-0.5-1.2-0.5h-2.3
			c0,0-0.1,0-0.1,0.1v3.3c0,0,0,0.1,0.1,0.1h2.3C335.3,116.7,335.7,116.6,336,116.3z"/>
		<path class="st2" d="M340.1,121.6c-0.5-0.3-0.9-0.8-1.1-1.5c-0.2-0.5-0.3-1.1-0.3-1.7c0-0.7,0.1-1.2,0.2-1.7
			c0.2-0.6,0.6-1.1,1.1-1.4c0.5-0.4,1.1-0.5,1.8-0.5c0.7,0,1.3,0.2,1.8,0.5c0.5,0.3,0.9,0.8,1.1,1.4c0.2,0.5,0.3,1,0.3,1.7
			c0,0.7-0.1,1.2-0.3,1.7c-0.2,0.6-0.6,1.1-1.1,1.5s-1.1,0.5-1.8,0.5C341.2,122.1,340.6,121.9,340.1,121.6z M342.9,120.6
			c0.3-0.2,0.5-0.5,0.6-0.9c0.1-0.4,0.2-0.8,0.2-1.3c0-0.5,0-1-0.1-1.3c-0.1-0.4-0.3-0.7-0.6-0.9c-0.3-0.2-0.6-0.3-1-0.3
			c-0.4,0-0.7,0.1-1,0.3c-0.3,0.2-0.5,0.5-0.6,0.9c-0.1,0.3-0.2,0.8-0.2,1.3c0,0.5,0.1,1,0.2,1.3c0.1,0.4,0.3,0.7,0.6,0.9
			s0.6,0.3,1,0.3C342.3,120.9,342.6,120.8,342.9,120.6z"/>
		<path class="st2" d="M347.9,121.9l-2-6.9l0,0c0-0.1,0-0.1,0.1-0.1h1.1c0.1,0,0.1,0,0.2,0.1l1.3,5.1c0,0,0,0,0,0c0,0,0,0,0,0
			l1.4-5.1c0-0.1,0.1-0.1,0.2-0.1h1c0.1,0,0.1,0,0.2,0.1l1.4,5.1c0,0,0,0,0,0c0,0,0,0,0,0l1.4-5.1c0-0.1,0.1-0.1,0.2-0.1l1.1,0
			c0,0,0.1,0,0.1,0c0,0,0,0.1,0,0.1l-2,6.8c0,0.1-0.1,0.1-0.2,0.1h-1.1c-0.1,0-0.1,0-0.2-0.1l-1.4-4.7c0,0,0,0,0,0c0,0,0,0,0,0
			l-1.3,4.7c0,0.1-0.1,0.1-0.2,0.1H348C347.9,122,347.9,122,347.9,121.9z"/>
		<path class="st2" d="M362.3,118.8c0,0.1,0,0.1-0.1,0.1h-4.5c0,0-0.1,0-0.1,0.1c0,0.3,0,0.6,0.1,0.7c0.1,0.4,0.3,0.7,0.6,0.9
			c0.3,0.2,0.7,0.3,1.2,0.3c0.7,0,1.2-0.3,1.6-0.9c0-0.1,0.1-0.1,0.2,0l0.8,0.5c0.1,0.1,0.1,0.1,0,0.2c-0.3,0.4-0.6,0.8-1.1,1
			c-0.5,0.2-1,0.4-1.6,0.4c-0.7,0-1.3-0.1-1.7-0.4c-0.5-0.3-0.8-0.7-1-1.3c-0.2-0.6-0.3-1.2-0.3-2c0-0.7,0.1-1.2,0.2-1.6
			c0.2-0.6,0.5-1.2,1-1.5c0.5-0.4,1.1-0.6,1.8-0.6c0.9,0,1.6,0.2,2.1,0.7c0.5,0.5,0.8,1.2,0.9,2.1
			C362.3,117.9,362.3,118.4,362.3,118.8z M358.3,116.2c-0.3,0.2-0.4,0.5-0.5,0.8c-0.1,0.2-0.1,0.5-0.1,0.8c0,0,0,0.1,0.1,0.1h3.2
			c0,0,0.1,0,0.1-0.1c0-0.3,0-0.5-0.1-0.7c-0.1-0.4-0.3-0.7-0.6-0.9c-0.3-0.2-0.6-0.3-1-0.3C358.9,115.9,358.6,116,358.3,116.2z"/>
		<path class="st2" d="M368,115c0.1,0,0.1,0.1,0.1,0.2l-0.2,1c0,0.1-0.1,0.1-0.2,0.1c-0.2-0.1-0.3-0.1-0.6-0.1l-0.2,0
			c-0.4,0-0.8,0.2-1.1,0.5c-0.3,0.3-0.4,0.7-0.4,1.1v4.1c0,0.1,0,0.1-0.1,0.1h-1.1c-0.1,0-0.1,0-0.1-0.1V115c0-0.1,0-0.1,0.1-0.1
			h1.1c0.1,0,0.1,0,0.1,0.1v0.7c0,0,0,0,0,0c0,0,0,0,0,0c0.4-0.7,1-1,1.7-1C367.4,114.8,367.7,114.9,368,115z"/>
		<path class="st2" d="M374.9,118.8c0,0.1,0,0.1-0.1,0.1h-4.5c0,0-0.1,0-0.1,0.1c0,0.3,0,0.6,0.1,0.7c0.1,0.4,0.3,0.7,0.6,0.9
			c0.3,0.2,0.7,0.3,1.2,0.3c0.7,0,1.2-0.3,1.6-0.9c0-0.1,0.1-0.1,0.2,0l0.8,0.5c0.1,0.1,0.1,0.1,0,0.2c-0.3,0.4-0.6,0.8-1.1,1
			c-0.5,0.2-1,0.4-1.6,0.4c-0.7,0-1.3-0.1-1.7-0.4c-0.5-0.3-0.8-0.7-1-1.3c-0.2-0.6-0.3-1.2-0.3-2c0-0.7,0.1-1.2,0.2-1.6
			c0.2-0.6,0.5-1.2,1-1.5c0.5-0.4,1.1-0.6,1.8-0.6c0.9,0,1.6,0.2,2.1,0.7c0.5,0.5,0.8,1.2,0.9,2.1
			C374.9,117.9,374.9,118.4,374.9,118.8z M370.9,116.2c-0.3,0.2-0.4,0.5-0.5,0.8c-0.1,0.2-0.1,0.5-0.1,0.8c0,0,0,0.1,0.1,0.1h3.2
			c0,0,0.1,0,0.1-0.1c0-0.3,0-0.5-0.1-0.7c-0.1-0.4-0.3-0.7-0.6-0.9c-0.3-0.2-0.6-0.3-1-0.3C371.5,115.9,371.2,116,370.9,116.2z"/>
		<path class="st2" d="M381.2,112.2h1.1c0.1,0,0.1,0,0.1,0.1v9.5c0,0.1,0,0.1-0.1,0.1h-1.1c-0.1,0-0.1,0-0.1-0.1v-0.5c0,0,0,0,0,0
			c0,0,0,0,0,0c-0.2,0.2-0.4,0.4-0.7,0.5c-0.3,0.1-0.6,0.2-0.9,0.2c-0.7,0-1.2-0.2-1.7-0.5s-0.8-0.8-1-1.4c-0.2-0.5-0.3-1.1-0.3-1.8
			c0-0.7,0.1-1.2,0.2-1.7c0.2-0.6,0.5-1.1,1-1.4c0.4-0.3,1-0.5,1.7-0.5c0.3,0,0.6,0.1,0.9,0.2c0.3,0.1,0.5,0.3,0.7,0.5c0,0,0,0,0,0
			c0,0,0,0,0,0v-3.1C381,112.2,381.1,112.2,381.2,112.2z M381,118.4c0-0.8-0.1-1.4-0.4-1.8c-0.3-0.5-0.7-0.7-1.2-0.7
			c-0.6,0-1,0.2-1.2,0.7c-0.3,0.5-0.4,1.1-0.4,1.8c0,0.7,0.1,1.3,0.4,1.7c0.3,0.5,0.7,0.8,1.3,0.8c0.5,0,1-0.3,1.2-0.8
			C380.9,119.8,381,119.2,381,118.4z"/>
		<path class="st2" d="M393.1,118.4c0,0.7-0.1,1.3-0.3,1.8c-0.2,0.6-0.5,1.1-1,1.4c-0.4,0.3-1,0.5-1.7,0.5c-0.3,0-0.6-0.1-0.9-0.2
			c-0.3-0.1-0.5-0.3-0.7-0.5c0,0,0,0,0,0c0,0,0,0,0,0v0.5c0,0.1,0,0.1-0.1,0.1h-1.1c-0.1,0-0.1,0-0.1-0.1v-9.5c0-0.1,0-0.1,0.1-0.1
			h1.1c0.1,0,0.1,0,0.1,0.1v3.1c0,0,0,0,0,0c0,0,0,0,0,0c0.2-0.2,0.5-0.4,0.7-0.5s0.6-0.2,0.9-0.2c0.7,0,1.3,0.2,1.7,0.5
			c0.4,0.3,0.8,0.8,1,1.4C393.1,117.2,393.1,117.8,393.1,118.4z M391.8,118.4c0-0.8-0.1-1.4-0.4-1.8c-0.3-0.4-0.7-0.7-1.2-0.7
			c-0.5,0-0.9,0.2-1.2,0.7c-0.2,0.4-0.4,1-0.4,1.8c0,0.8,0.1,1.4,0.3,1.8c0.3,0.5,0.7,0.8,1.2,0.8c0.6,0,1.1-0.3,1.3-0.8
			C391.7,119.7,391.8,119.2,391.8,118.4z"/>
		<path class="st2" d="M394.4,124.6v-0.8c0-0.1,0-0.1,0.1-0.1h0c0.4,0,0.7-0.1,0.9-0.1c0.2-0.1,0.4-0.2,0.5-0.5
			c0.1-0.2,0.3-0.6,0.4-1c0,0,0,0,0-0.1L394,115l0-0.1c0-0.1,0-0.1,0.1-0.1h1.1c0.1,0,0.1,0,0.2,0.1l1.6,5.3c0,0,0,0,0,0s0,0,0,0
			l1.6-5.3c0-0.1,0.1-0.1,0.2-0.1h1.1c0.1,0,0.1,0.1,0.1,0.2l-2.5,7.5c-0.2,0.6-0.4,1.1-0.6,1.4c-0.2,0.3-0.5,0.5-0.8,0.7
			c-0.3,0.1-0.8,0.2-1.5,0.2h-0.1C394.4,124.8,394.4,124.7,394.4,124.6z"/>
	</g>
	<g class="st0">
		<path class="st2" d="M405.4,121.8c-0.6-0.2-1-0.6-1.3-1c-0.3-0.4-0.5-1-0.5-1.5v-0.3c0,0,0-0.1,0-0.1c0,0,0.1,0,0.1,0h1.6
			c0,0,0.1,0,0.1,0c0,0,0,0.1,0,0.1v0.2c0,0.4,0.2,0.7,0.5,0.9c0.3,0.3,0.8,0.4,1.4,0.4c0.5,0,0.9-0.1,1.1-0.3
			c0.2-0.2,0.4-0.5,0.4-0.8c0-0.2-0.1-0.4-0.2-0.6c-0.1-0.2-0.4-0.3-0.6-0.4c-0.3-0.1-0.7-0.3-1.2-0.5c-0.6-0.2-1.2-0.4-1.6-0.7
			s-0.8-0.5-1.1-0.9c-0.3-0.4-0.4-0.9-0.4-1.4c0-0.6,0.1-1.1,0.4-1.5c0.3-0.4,0.7-0.7,1.2-1c0.5-0.2,1.1-0.3,1.8-0.3
			c0.7,0,1.3,0.1,1.9,0.4c0.6,0.3,1,0.6,1.3,1.1c0.3,0.5,0.5,1,0.5,1.6v0.2c0,0,0,0.1,0,0.1c0,0-0.1,0-0.1,0h-1.6c0,0-0.1,0-0.1,0
			c0,0,0-0.1,0-0.1v-0.1c0-0.4-0.2-0.7-0.5-1s-0.8-0.4-1.3-0.4c-0.4,0-0.8,0.1-1,0.3c-0.2,0.2-0.4,0.4-0.4,0.8
			c0,0.2,0.1,0.4,0.2,0.6c0.1,0.2,0.4,0.3,0.6,0.4c0.3,0.1,0.7,0.3,1.3,0.5c0.7,0.2,1.2,0.5,1.6,0.6c0.4,0.2,0.7,0.5,1,0.8
			c0.3,0.4,0.5,0.8,0.5,1.4c0,0.9-0.3,1.6-1,2.1c-0.6,0.5-1.5,0.8-2.6,0.8C406.6,122.1,406,122,405.4,121.8z"/>
		<path class="st2" d="M412.5,113.7c-0.2-0.2-0.3-0.5-0.3-0.8c0-0.3,0.1-0.6,0.3-0.8c0.2-0.2,0.5-0.3,0.8-0.3c0.3,0,0.6,0.1,0.8,0.3
			s0.3,0.5,0.3,0.8c0,0.3-0.1,0.6-0.3,0.8s-0.5,0.3-0.8,0.3S412.7,113.9,412.5,113.7z M412.3,122c0,0,0-0.1,0-0.1V115
			c0,0,0-0.1,0-0.1c0,0,0.1,0,0.1,0h1.6c0,0,0.1,0,0.1,0c0,0,0,0.1,0,0.1v6.9c0,0,0,0.1,0,0.1c0,0-0.1,0-0.1,0h-1.6
			C412.4,122,412.4,122,412.3,122z"/>
		<path class="st2" d="M421.4,115.4c0.5,0.5,0.7,1.1,0.7,1.9v4.6c0,0,0,0.1,0,0.1c0,0-0.1,0-0.1,0h-1.6c0,0-0.1,0-0.1,0
			c0,0,0-0.1,0-0.1v-4.2c0-0.4-0.1-0.7-0.3-0.9s-0.5-0.4-0.8-0.4c-0.3,0-0.6,0.1-0.8,0.4s-0.3,0.5-0.3,0.9v4.2c0,0,0,0.1,0,0.1
			c0,0-0.1,0-0.1,0H416c0,0-0.1,0-0.1,0c0,0,0-0.1,0-0.1V115c0,0,0-0.1,0-0.1c0,0,0.1,0,0.1,0h1.6c0,0,0.1,0,0.1,0c0,0,0,0.1,0,0.1
			v0.5c0,0,0,0,0,0.1c0,0,0,0,0,0c0.4-0.5,1-0.8,1.7-0.8C420.3,114.7,420.9,114.9,421.4,115.4z"/>
		<path class="st2" d="M427.5,116.3c0,0-0.1,0-0.1,0h-1.3c0,0-0.1,0-0.1,0.1v3c0,0.3,0.1,0.5,0.2,0.7s0.3,0.2,0.6,0.2h0.5
			c0,0,0.1,0,0.1,0c0,0,0,0.1,0,0.1v1.3c0,0.1-0.1,0.2-0.2,0.2c-0.4,0-0.7,0-0.8,0c-0.8,0-1.4-0.1-1.7-0.4s-0.6-0.7-0.6-1.4v-3.8
			c0,0,0-0.1-0.1-0.1h-0.8c0,0-0.1,0-0.1,0c0,0,0-0.1,0-0.1V115c0,0,0-0.1,0-0.1c0,0,0.1,0,0.1,0h0.8c0,0,0.1,0,0.1-0.1v-1.7
			c0,0,0-0.1,0-0.1c0,0,0.1,0,0.1,0h1.6c0,0,0.1,0,0.1,0c0,0,0,0.1,0,0.1v1.7c0,0,0,0.1,0.1,0.1h1.3c0,0,0.1,0,0.1,0
			c0,0,0,0.1,0,0.1v1.2C427.6,116.3,427.6,116.3,427.5,116.3z"/>
		<path class="st2" d="M433.2,114.9c0.1,0,0.1,0.1,0.1,0.2l-0.3,1.6c0,0.1-0.1,0.1-0.2,0.1c-0.1,0-0.3-0.1-0.5-0.1
			c-0.1,0-0.2,0-0.3,0c-0.3,0-0.6,0.2-0.9,0.4c-0.2,0.2-0.3,0.5-0.3,0.9v3.8c0,0,0,0.1,0,0.1c0,0-0.1,0-0.1,0H429c0,0-0.1,0-0.1,0
			c0,0,0-0.1,0-0.1V115c0,0,0-0.1,0-0.1c0,0,0.1,0,0.1,0h1.6c0,0,0.1,0,0.1,0c0,0,0,0.1,0,0.1v0.5c0,0,0,0,0,0.1c0,0,0,0,0,0
			c0.4-0.6,0.9-0.8,1.5-0.8C432.7,114.7,433,114.8,433.2,114.9z"/>
		<path class="st2" d="M438.6,115c0.5,0.2,0.8,0.5,1.1,0.9c0.3,0.4,0.4,0.8,0.4,1.2v4.7c0,0,0,0.1,0,0.1c0,0-0.1,0-0.1,0h-1.6
			c0,0-0.1,0-0.1,0c0,0,0-0.1,0-0.1v-0.5c0,0,0,0,0-0.1c0,0,0,0-0.1,0c-0.4,0.5-1,0.8-1.9,0.8c-0.7,0-1.3-0.2-1.8-0.5
			s-0.7-0.9-0.7-1.6c0-0.7,0.3-1.3,0.8-1.7s1.2-0.6,2.2-0.6h1.4c0,0,0.1,0,0.1-0.1v-0.3c0-0.3-0.1-0.5-0.3-0.7
			c-0.2-0.2-0.5-0.3-0.8-0.3c-0.3,0-0.5,0.1-0.7,0.2s-0.3,0.2-0.4,0.4c0,0.1-0.1,0.1-0.2,0.1l-1.7-0.2c-0.1,0-0.2-0.1-0.2-0.1
			c0-0.4,0.2-0.7,0.5-1.1s0.6-0.6,1.1-0.7c0.5-0.2,1-0.3,1.5-0.3C437.5,114.7,438.1,114.8,438.6,115z M437.7,120.3
			c0.3-0.2,0.4-0.5,0.4-0.8V119c0,0,0-0.1-0.1-0.1h-1c-0.4,0-0.7,0.1-1,0.2c-0.2,0.2-0.4,0.4-0.4,0.7c0,0.3,0.1,0.5,0.3,0.6
			c0.2,0.1,0.4,0.2,0.7,0.2C437.1,120.6,437.4,120.5,437.7,120.3z"/>
		<path class="st2" d="M444.4,122c0,0,0-0.1,0-0.1v-9.5c0,0,0-0.1,0-0.1c0,0,0.1,0,0.1,0h3.5c0.7,0,1.3,0.1,1.8,0.4s0.9,0.6,1.2,1
			c0.3,0.4,0.4,1,0.4,1.6v3.9c0,0.6-0.1,1.1-0.4,1.6s-0.7,0.8-1.2,1s-1.1,0.4-1.8,0.4h-3.5C444.5,122,444.5,122,444.4,122z
			 M446.4,120.3h1.7c0.4,0,0.8-0.1,1-0.4s0.4-0.7,0.4-1.2v-3.2c0-0.5-0.1-0.9-0.4-1.2c-0.3-0.3-0.6-0.4-1.1-0.4h-1.7
			c0,0-0.1,0-0.1,0.1L446.4,120.3C446.4,120.3,446.4,120.3,446.4,120.3z"/>
		<path class="st2" d="M453.2,113.7c-0.2-0.2-0.3-0.5-0.3-0.8c0-0.3,0.1-0.6,0.3-0.8s0.5-0.3,0.8-0.3c0.3,0,0.6,0.1,0.8,0.3
			c0.2,0.2,0.3,0.5,0.3,0.8c0,0.3-0.1,0.6-0.3,0.8s-0.5,0.3-0.8,0.3S453.4,113.9,453.2,113.7z M453,122c0,0,0-0.1,0-0.1V115
			c0,0,0-0.1,0-0.1c0,0,0.1,0,0.1,0h1.6c0,0,0.1,0,0.1,0c0,0,0,0.1,0,0.1v6.9c0,0,0,0.1,0,0.1c0,0-0.1,0-0.1,0h-1.6
			C453.1,122,453,122,453,122z"/>
		<path class="st2" d="M460.9,114.9c0,0,0.1,0,0.1,0h1.6c0,0,0.1,0,0.1,0c0,0,0,0.1,0,0.1v6.4c0,1.2-0.4,2.1-1.1,2.6
			c-0.7,0.5-1.6,0.8-2.7,0.8c-0.3,0-0.7,0-1.1-0.1c-0.1,0-0.1-0.1-0.1-0.2l0.1-1.4c0-0.1,0.1-0.2,0.2-0.2c0.3,0.1,0.6,0.1,0.9,0.1
			c0.6,0,1.1-0.1,1.4-0.4c0.3-0.3,0.5-0.7,0.5-1.3c0,0,0,0,0,0s0,0-0.1,0c-0.4,0.4-0.9,0.6-1.6,0.6c-0.6,0-1.2-0.1-1.7-0.4
			s-0.9-0.8-1.1-1.4c-0.1-0.4-0.2-1-0.2-1.7c0-0.7,0.1-1.3,0.3-1.8c0.2-0.6,0.5-1,1-1.4c0.5-0.3,1-0.5,1.6-0.5
			c0.7,0,1.3,0.2,1.7,0.6c0,0,0,0,0.1,0c0,0,0,0,0,0V115C460.9,114.9,460.9,114.9,460.9,114.9z M460.9,118.3c0-0.3,0-0.5,0-0.7
			c0-0.2-0.1-0.3-0.1-0.4c-0.1-0.3-0.2-0.5-0.4-0.6c-0.2-0.2-0.4-0.2-0.7-0.2c-0.3,0-0.5,0.1-0.7,0.2s-0.3,0.4-0.4,0.6
			c-0.1,0.3-0.2,0.7-0.2,1.1c0,0.5,0.1,0.9,0.2,1.1c0.1,0.3,0.2,0.5,0.4,0.6c0.2,0.2,0.5,0.2,0.7,0.2c0.3,0,0.5-0.1,0.7-0.2
			c0.2-0.2,0.3-0.4,0.4-0.6C460.8,119.2,460.9,118.8,460.9,118.3z"/>
		<path class="st2" d="M464.5,113.7c-0.2-0.2-0.3-0.5-0.3-0.8c0-0.3,0.1-0.6,0.3-0.8c0.2-0.2,0.5-0.3,0.8-0.3c0.3,0,0.6,0.1,0.8,0.3
			s0.3,0.5,0.3,0.8c0,0.3-0.1,0.6-0.3,0.8s-0.5,0.3-0.8,0.3S464.7,113.9,464.5,113.7z M464.4,122c0,0,0-0.1,0-0.1V115
			c0,0,0-0.1,0-0.1c0,0,0.1,0,0.1,0h1.6c0,0,0.1,0,0.1,0c0,0,0,0.1,0,0.1v6.9c0,0,0,0.1,0,0.1c0,0-0.1,0-0.1,0h-1.6
			C464.4,122,464.4,122,464.4,122z"/>
		<path class="st2" d="M471.9,116.3c0,0-0.1,0-0.1,0h-1.3c0,0-0.1,0-0.1,0.1v3c0,0.3,0.1,0.5,0.2,0.7s0.3,0.2,0.6,0.2h0.5
			c0,0,0.1,0,0.1,0c0,0,0,0.1,0,0.1v1.3c0,0.1-0.1,0.2-0.2,0.2c-0.4,0-0.7,0-0.8,0c-0.8,0-1.4-0.1-1.7-0.4s-0.6-0.7-0.6-1.4v-3.8
			c0,0,0-0.1-0.1-0.1h-0.8c0,0-0.1,0-0.1,0c0,0,0-0.1,0-0.1V115c0,0,0-0.1,0-0.1c0,0,0.1,0,0.1,0h0.8c0,0,0.1,0,0.1-0.1v-1.7
			c0,0,0-0.1,0-0.1c0,0,0.1,0,0.1,0h1.6c0,0,0.1,0,0.1,0c0,0,0,0.1,0,0.1v1.7c0,0,0,0.1,0.1,0.1h1.3c0,0,0.1,0,0.1,0
			c0,0,0,0.1,0,0.1v1.2C472,116.3,471.9,116.3,471.9,116.3z"/>
		<path class="st2" d="M477.6,115c0.5,0.2,0.8,0.5,1.1,0.9c0.3,0.4,0.4,0.8,0.4,1.2v4.7c0,0,0,0.1,0,0.1c0,0-0.1,0-0.1,0h-1.6
			c0,0-0.1,0-0.1,0c0,0,0-0.1,0-0.1v-0.5c0,0,0,0,0-0.1c0,0,0,0-0.1,0c-0.4,0.5-1,0.8-1.9,0.8c-0.7,0-1.3-0.2-1.8-0.5
			c-0.4-0.4-0.7-0.9-0.7-1.6c0-0.7,0.3-1.3,0.8-1.7s1.2-0.6,2.2-0.6h1.4c0,0,0.1,0,0.1-0.1v-0.3c0-0.3-0.1-0.5-0.3-0.7
			c-0.2-0.2-0.5-0.3-0.8-0.3c-0.3,0-0.5,0.1-0.7,0.2s-0.3,0.2-0.4,0.4c0,0.1-0.1,0.1-0.2,0.1l-1.7-0.2c-0.1,0-0.2-0.1-0.2-0.1
			c0-0.4,0.2-0.7,0.5-1.1s0.6-0.6,1.1-0.7c0.5-0.2,1-0.3,1.5-0.3C476.6,114.7,477.2,114.8,477.6,115z M476.8,120.3
			c0.3-0.2,0.4-0.5,0.4-0.8V119c0,0,0-0.1-0.1-0.1h-1c-0.4,0-0.7,0.1-1,0.2c-0.2,0.2-0.4,0.4-0.4,0.7c0,0.3,0.1,0.5,0.3,0.6
			c0.2,0.1,0.4,0.2,0.7,0.2C476.1,120.6,476.5,120.5,476.8,120.3z"/>
		<path class="st2" d="M480.6,122c0,0,0-0.1,0-0.1v-9.5c0,0,0-0.1,0-0.1c0,0,0.1,0,0.1,0h1.6c0,0,0.1,0,0.1,0c0,0,0,0.1,0,0.1v9.5
			c0,0,0,0.1,0,0.1c0,0-0.1,0-0.1,0h-1.6C480.7,122,480.6,122,480.6,122z"/>
		<path class="st2" d="M492.7,117c0.9,0.5,1.3,1.2,1.3,2.3c0,0.9-0.3,1.6-0.9,2.1s-1.4,0.7-2.4,0.7h-3.6c0,0-0.1,0-0.1,0
			c0,0,0-0.1,0-0.1v-9.5c0,0,0-0.1,0-0.1c0,0,0.1,0,0.1,0h3.5c2.2,0,3.3,0.9,3.3,2.7C493.9,115.8,493.5,116.5,492.7,117
			C492.6,116.9,492.6,116.9,492.7,117z M488.9,114v2.2c0,0,0,0.1,0.1,0.1h1.6c0.4,0,0.8-0.1,1-0.3c0.2-0.2,0.4-0.5,0.4-0.8
			c0-0.4-0.1-0.7-0.4-0.9c-0.2-0.2-0.6-0.3-1-0.3L488.9,114C488.9,113.9,488.9,113.9,488.9,114z M491.7,120c0.2-0.2,0.4-0.5,0.4-0.9
			c0-0.4-0.1-0.7-0.4-0.9c-0.2-0.2-0.6-0.3-1-0.3h-1.7c0,0-0.1,0-0.1,0.1v2.3c0,0,0,0.1,0.1,0.1h1.8
			C491.1,120.3,491.4,120.2,491.7,120z"/>
		<path class="st2" d="M499.6,114.9c0,0,0.1,0,0.1,0h1.6c0,0,0.1,0,0.1,0c0,0,0,0.1,0,0.1v6.9c0,0,0,0.1,0,0.1c0,0-0.1,0-0.1,0h-1.6
			c0,0-0.1,0-0.1,0c0,0,0-0.1,0-0.1v-0.5c0,0,0,0,0,0c0,0,0,0-0.1,0c-0.4,0.5-1,0.8-1.7,0.8c-0.7,0-1.3-0.2-1.8-0.6
			c-0.5-0.4-0.7-1-0.7-1.8V115c0,0,0-0.1,0-0.1c0,0,0.1,0,0.1,0h1.6c0,0,0.1,0,0.1,0c0,0,0,0.1,0,0.1v4.2c0,0.4,0.1,0.7,0.3,0.9
			c0.2,0.2,0.5,0.3,0.8,0.3c0.3,0,0.6-0.1,0.8-0.3c0.2-0.2,0.3-0.4,0.4-0.7V115C499.6,114.9,499.6,114.9,499.6,114.9z"/>
		<path class="st2" d="M504.2,121.8c-0.5-0.2-0.8-0.4-1.1-0.7s-0.4-0.7-0.4-1.1v-0.1c0,0,0-0.1,0-0.1c0,0,0.1,0,0.1,0h1.6
			c0,0,0.1,0,0.1,0c0,0,0,0.1,0,0.1v0c0,0.2,0.1,0.4,0.3,0.5c0.2,0.1,0.5,0.2,0.9,0.2c0.3,0,0.6-0.1,0.8-0.2
			c0.2-0.1,0.3-0.3,0.3-0.5c0-0.2-0.1-0.3-0.3-0.4s-0.4-0.2-0.8-0.3c-0.4-0.1-0.8-0.2-1-0.3c-0.6-0.2-1.1-0.5-1.4-0.8
			c-0.4-0.3-0.5-0.7-0.5-1.3c0-0.7,0.3-1.2,0.8-1.6c0.5-0.4,1.2-0.6,2.1-0.6c0.6,0,1.1,0.1,1.6,0.3s0.8,0.5,1,0.8
			c0.2,0.3,0.4,0.7,0.4,1.2c0,0,0,0.1,0,0.1c0,0-0.1,0-0.1,0h-1.5c0,0-0.1,0-0.1,0c0,0,0-0.1,0-0.1c0-0.2-0.1-0.4-0.3-0.5
			s-0.5-0.2-0.8-0.2c-0.3,0-0.6,0.1-0.8,0.2c-0.2,0.1-0.3,0.3-0.3,0.5c0,0.2,0.1,0.3,0.3,0.4c0.2,0.1,0.5,0.2,1,0.3
			c0.1,0,0.2,0.1,0.4,0.1c0.1,0,0.3,0.1,0.4,0.1c0.7,0.2,1.2,0.4,1.6,0.8c0.4,0.3,0.6,0.8,0.6,1.3c0,0.7-0.3,1.2-0.8,1.6
			c-0.5,0.4-1.3,0.6-2.2,0.6C505.2,122.1,504.7,122,504.2,121.8z"/>
		<path class="st2" d="M510.3,113.7c-0.2-0.2-0.3-0.5-0.3-0.8c0-0.3,0.1-0.6,0.3-0.8s0.5-0.3,0.8-0.3c0.3,0,0.6,0.1,0.8,0.3
			c0.2,0.2,0.3,0.5,0.3,0.8c0,0.3-0.1,0.6-0.3,0.8s-0.5,0.3-0.8,0.3S510.5,113.9,510.3,113.7z M510.1,122c0,0,0-0.1,0-0.1V115
			c0,0,0-0.1,0-0.1c0,0,0.1,0,0.1,0h1.6c0,0,0.1,0,0.1,0c0,0,0,0.1,0,0.1v6.9c0,0,0,0.1,0,0.1c0,0-0.1,0-0.1,0h-1.6
			C510.2,122,510.1,122,510.1,122z"/>
		<path class="st2" d="M519.1,115.4c0.5,0.5,0.7,1.1,0.7,1.9v4.6c0,0,0,0.1,0,0.1c0,0-0.1,0-0.1,0H518c0,0-0.1,0-0.1,0
			c0,0,0-0.1,0-0.1v-4.2c0-0.4-0.1-0.7-0.3-0.9s-0.5-0.4-0.8-0.4s-0.6,0.1-0.8,0.4s-0.3,0.5-0.3,0.9v4.2c0,0,0,0.1,0,0.1
			c0,0-0.1,0-0.1,0h-1.6c0,0-0.1,0-0.1,0c0,0,0-0.1,0-0.1V115c0,0,0-0.1,0-0.1c0,0,0.1,0,0.1,0h1.6c0,0,0.1,0,0.1,0c0,0,0,0.1,0,0.1
			v0.5c0,0,0,0,0,0.1c0,0,0,0,0,0c0.4-0.5,1-0.8,1.7-0.8C518.1,114.7,518.7,114.9,519.1,115.4z"/>
		<path class="st2" d="M527.6,118.8c0,0.1-0.1,0.2-0.2,0.2h-4.3c-0.1,0-0.1,0-0.1,0.1c0,0.2,0.1,0.4,0.2,0.6
			c0.2,0.5,0.7,0.8,1.5,0.8c0.6,0,1.1-0.3,1.4-0.7c0-0.1,0.1-0.1,0.1-0.1c0,0,0.1,0,0.1,0.1l1,1c0,0,0.1,0.1,0.1,0.1
			c0,0,0,0.1-0.1,0.1c-0.3,0.4-0.7,0.7-1.2,0.9s-1,0.3-1.6,0.3c-0.8,0-1.5-0.2-2-0.5c-0.6-0.4-1-0.9-1.2-1.5
			c-0.2-0.5-0.3-1.1-0.3-1.8c0-0.5,0.1-1,0.2-1.4c0.2-0.7,0.6-1.2,1.1-1.6c0.5-0.4,1.2-0.6,1.9-0.6c0.9,0,1.7,0.3,2.2,0.8
			s0.9,1.3,1,2.2C527.6,118,527.6,118.4,527.6,118.8z M523.1,117.2c0,0.1-0.1,0.3-0.1,0.4c0,0,0,0.1,0.1,0.1h2.4
			c0.1,0,0.1,0,0.1-0.1c0-0.3-0.1-0.4-0.1-0.4c-0.1-0.3-0.2-0.5-0.4-0.7s-0.5-0.2-0.8-0.2C523.7,116.4,523.3,116.7,523.1,117.2z"/>
		<path class="st2" d="M530,121.8c-0.5-0.2-0.8-0.4-1.1-0.7s-0.4-0.7-0.4-1.1v-0.1c0,0,0-0.1,0-0.1c0,0,0.1,0,0.1,0h1.6
			c0,0,0.1,0,0.1,0c0,0,0,0.1,0,0.1v0c0,0.2,0.1,0.4,0.3,0.5s0.5,0.2,0.9,0.2c0.3,0,0.6-0.1,0.8-0.2c0.2-0.1,0.3-0.3,0.3-0.5
			c0-0.2-0.1-0.3-0.3-0.4s-0.4-0.2-0.8-0.3c-0.4-0.1-0.8-0.2-1-0.3c-0.6-0.2-1.1-0.5-1.4-0.8s-0.5-0.7-0.5-1.3
			c0-0.7,0.3-1.2,0.8-1.6c0.5-0.4,1.2-0.6,2.1-0.6c0.6,0,1.1,0.1,1.6,0.3c0.4,0.2,0.8,0.5,1,0.8c0.2,0.3,0.4,0.7,0.4,1.2
			c0,0,0,0.1,0,0.1c0,0-0.1,0-0.1,0h-1.5c0,0-0.1,0-0.1,0c0,0,0-0.1,0-0.1c0-0.2-0.1-0.4-0.3-0.5s-0.5-0.2-0.8-0.2
			c-0.3,0-0.6,0.1-0.8,0.2s-0.3,0.3-0.3,0.5c0,0.2,0.1,0.3,0.3,0.4c0.2,0.1,0.5,0.2,1,0.3c0.1,0,0.2,0.1,0.3,0.1
			c0.1,0,0.3,0.1,0.4,0.1c0.7,0.2,1.2,0.4,1.6,0.8c0.4,0.3,0.6,0.8,0.6,1.3c0,0.7-0.3,1.2-0.8,1.6c-0.5,0.4-1.3,0.6-2.2,0.6
			C531,122.1,530.4,122,530,121.8z"/>
		<path class="st2" d="M536.9,121.8c-0.5-0.2-0.8-0.4-1.1-0.7s-0.4-0.7-0.4-1.1v-0.1c0,0,0-0.1,0-0.1c0,0,0.1,0,0.1,0h1.6
			c0,0,0.1,0,0.1,0c0,0,0,0.1,0,0.1v0c0,0.2,0.1,0.4,0.3,0.5c0.2,0.1,0.5,0.2,0.9,0.2c0.3,0,0.6-0.1,0.8-0.2
			c0.2-0.1,0.3-0.3,0.3-0.5c0-0.2-0.1-0.3-0.3-0.4s-0.4-0.2-0.8-0.3c-0.4-0.1-0.8-0.2-1-0.3c-0.6-0.2-1.1-0.5-1.4-0.8
			c-0.4-0.3-0.5-0.7-0.5-1.3c0-0.7,0.3-1.2,0.8-1.6c0.5-0.4,1.2-0.6,2.1-0.6c0.6,0,1.1,0.1,1.6,0.3s0.8,0.5,1,0.8
			c0.2,0.3,0.4,0.7,0.4,1.2c0,0,0,0.1,0,0.1c0,0-0.1,0-0.1,0h-1.5c0,0-0.1,0-0.1,0c0,0,0-0.1,0-0.1c0-0.2-0.1-0.4-0.3-0.5
			s-0.5-0.2-0.8-0.2c-0.3,0-0.6,0.1-0.8,0.2c-0.2,0.1-0.3,0.3-0.3,0.5c0,0.2,0.1,0.3,0.3,0.4c0.2,0.1,0.5,0.2,1,0.3
			c0.1,0,0.2,0.1,0.4,0.1c0.1,0,0.3,0.1,0.4,0.1c0.7,0.2,1.2,0.4,1.6,0.8c0.4,0.3,0.6,0.8,0.6,1.3c0,0.7-0.3,1.2-0.8,1.6
			c-0.5,0.4-1.3,0.6-2.2,0.6C537.9,122.1,537.4,122,536.9,121.8z"/>
	</g>
</g>
</svg>
